<svg xmlns="http://www.w3.org/2000/svg" xmlns:xlink="http://www.w3.org/1999/xlink" viewBox="0 0 411.72 419.42"><defs><style>.cls-1{fill:url(#radial-gradient);}.cls-2{fill:url(#radial-gradient-2);}</style><radialGradient id="radial-gradient" cx="205.87" cy="209.71" r="207.79" gradientUnits="userSpaceOnUse"><stop offset="0.03" stop-color="#ff931e"/><stop offset="1" stop-color="#1cf93c"/></radialGradient><radialGradient id="radial-gradient-2" cx="205.86" cy="209.71" r="207.79" gradientUnits="userSpaceOnUse"><stop offset="0" stop-color="#1cf93c"/><stop offset="0.09" stop-color="#44e737"/><stop offset="0.21" stop-color="#75d130"/><stop offset="0.34" stop-color="#a0be2b"/><stop offset="0.46" stop-color="#c2ae26"/><stop offset="0.59" stop-color="#dda223"/><stop offset="0.72" stop-color="#f09a20"/><stop offset="0.86" stop-color="#fb951e"/><stop offset="1" stop-color="#ff931e"/></radialGradient></defs><title>Asset 1</title><g id="Layer_2" data-name="Layer 2"><g id="Layer_1-2" data-name="Layer 1"><path class="cls-1" d="M209.34,216c334.91,182.07,83.24,163.22-5.82-.43,89.06,163.65-69.14,360.28-3.66,4.54-65.48,355.74-125.32,110.57-1.38-5.66C74.54,330.64-161.35,240.94,193,212.33c-354.38,28.61-139.7-104.06,5-3.06-144.66-101-132.25-353.07.29-5.83-132.54-347.24,60-184.06,4.45,3.77,55.53-187.83,299.1-253.92,5.63-1.53,293.47-252.39,197.77-18.87-2.22,5.4C406.13,186.81,544.25,398,209.34,216Z"/><path class="cls-2" d="M161.66,1c4.81,0,11,4.73,17.4,13.31,22.06,29.53,47.74,108,22.71,192.62a1,1,0,0,0,.67,1.24,1,1,0,0,0,.29,0,1,1,0,0,0,1-.71c12.91-43.68,38.21-86.61,71.24-120.88,28.61-29.69,55.75-45.22,67.76-45.22,3.29,0,5.38,1.13,6.21,3.37,1.28,3.46,1.3,15.08-26.14,48.26-24.62,29.77-63.33,67.41-115.06,111.9a1,1,0,0,0,.66,1.75,1,1,0,0,0,.65-.24c46.51-40,86.34-70.5,118.39-90.66,26-16.36,46.37-25.36,57.38-25.36,5.26,0,8.05,2,8.29,6,.66,10.8-17.18,35.63-51.52,60.37C318.6,173.35,270.48,202.27,206,210.09a1,1,0,0,0,.12,2h.12a270.82,270.82,0,0,1,32.64-2h0c57.29,0,101.31,17.75,122.45,28.33,32.41,16.23,49.36,34.1,49.36,43.37a6.12,6.12,0,0,1-3.36,5.59c-2.53,1.49-6.41,2.24-11.5,2.24-13.9,0-36-5.65-64-16.33-33.41-12.77-74.47-32.36-122-58.22a.9.9,0,0,0-.47-.13,1,1,0,0,0-.48,1.88c58.7,31.91,105.18,60.93,134.41,83.91,33,25.9,34.57,36.34,33.73,39.63s-5.38,4.11-9,4.11c-13.86,0-42.65-10.28-75.74-33.26-26-18.08-62.41-49.45-87.84-96.18a1,1,0,0,0-.88-.52,1,1,0,0,0-.48.12,1,1,0,0,0-.4,1.36c23.31,42.83,28,84.78,27.82,112.43-.24,36.89-9,64.54-17,78.12-4.54,7.65-9.35,11.86-13.55,11.86-2.13,0-4.12-1.1-5.92-3.26-6.34-7.61-9.7-27.39-9.46-55.71.29-35.06,5.79-81.89,16.34-139.19l-1-.19-1-.18c-11.39,61.9-23.85,111.73-36,144.11-13.72,36.46-22.85,40.4-26.14,40.4s-5.18-3.42-6.32-6.28c-4.7-11.89-4.76-41.51,6.21-78.43a254.51,254.51,0,0,1,23-54,216.65,216.65,0,0,1,39.52-50.55l-.68-.73-.68-.73c-45.37,42.54-106.16,57.7-147.92,57.7-24.49,0-42.49-5.56-42.8-13.21-.14-3.42,3.51-12.52,40.24-22.93,32.75-9.28,83.16-16.85,145.79-21.91l-.08-1-.08-1c-34,2.74-64.53,4.13-90.72,4.13-34.25,0-60.7-2.31-78.61-6.86C9,204.9,1,199.81,1,194.28c0-5.24,7.42-10.93,19.84-15.21,13.75-4.75,32-7.36,51.38-7.36,26.23,0,77.37,5,125.2,38.38l.57-.82.57-.82c-45.55-31.8-71.7-76.13-83.23-99.73C98,73.35,92.61,43.31,96.19,31.93c1-3.25,2.72-4.9,5-4.9,3.39,0,13.48,3.77,33.87,38.7C153.39,97,174.33,143.5,197.34,203.8a1,1,0,0,0,.94.64.87.87,0,0,0,.35-.07,1,1,0,0,0,.58-1.29C151.84,79,145.76,19.06,155.86,4.39A6.9,6.9,0,0,1,161.66,1m0-1c-17.3,0-19.95,55.23,36.62,203.44C147.88,71.4,114.86,26,101.23,26,79,26,108.34,146.67,198,209.27c-41.16-28.74-88-38.56-125.77-38.56-81.55,0-120.95,45.76,30,45.76,24.86,0,54.93-1.24,90.8-4.14-222.62,18-212.32,60-143.15,60,40.94,0,102.52-14.75,148.6-58-76,71.26-82.89,191-61.77,191,13.33,0,37.82-47.69,63.15-185.33-27,146.54-16,199.35,0,199.35,22.87,0,56-107.65,3.63-203.89,45.77,84.1,134.49,130,164.46,130,28.35,0,4.15-41-158.64-129.53C312,271.79,370.25,290.64,395.85,290.64c53.23,0-34.63-81.53-157-81.53a272.21,272.21,0,0,0-32.76,2C337.2,195.18,423.48,89.42,384.78,89.42c-20.35,0-75.27,29.27-176.42,116.26C344,89,364.93,40.4,342.69,40.4c-25.87,0-110.1,65.81-140,166.81C234.56,99.55,184.9,0,161.66,0Z"/></g></g></svg>