<svg xmlns="http://www.w3.org/2000/svg" viewBox="0 0 247.28 251.67"><defs><style>.cls-1{fill:#fff;}</style></defs><title>Asset1</title><g id="Layer_2" data-name="Layer 2"><g id="Layer_1-2" data-name="Layer 1"><path class="cls-1" d="M116.62,251.17a6.38,6.38,0,0,1-4.91-2.49c-3.91-4.59-9.33-19.56-1.61-68.26a.5.5,0,0,0-.42-.57h-.07a.51.51,0,0,0-.5.43C99.64,240,89.77,244.63,87,244.63c-2.62,0-4.49-3.25-5.61-6-7.39-18.1-5.38-68.54,20-93.38a.5.5,0,0,0-.35-.86.49.49,0,0,0-.35.15c-12.39,12.15-32.82,19.12-56,19.12h0c-21.73,0-41-6.33-41.28-13.56-.11-3.08,4.16-13.46,63.64-17.66a.5.5,0,0,0,0-1h0c-8.95.63-17.19.95-24.51.95h0c-31.22,0-39.16-5.68-41.12-9.06a5.62,5.62,0,0,1,.31-5.91c4.9-8.49,27.37-18,51.79-18,12.2,0,29.78,2.38,44.29,13.69a.51.51,0,0,0,.31.11.52.52,0,0,0,.39-.19.51.51,0,0,0-.09-.71C66.34,87.55,55.69,32.64,61.06,17,62,14.32,63.33,13,65,13c2.81,0,13.57,4.58,34.19,63.6a.5.5,0,0,0,.47.33l.16,0a.5.5,0,0,0,.31-.64C81.5,22.81,86.31,7.44,89.24,3.3A6.15,6.15,0,0,1,94.46.5c5.22,0,12.27,5.5,18.87,14.71,14.33,20,24.12,53.91,13.7,84.59a.5.5,0,0,0,.31.63l.16,0a.5.5,0,0,0,.48-.34c8.81-25.95,28.32-44.67,39.16-53.52,14.91-12.18,31.79-20.68,41.05-20.68,3.15,0,5.1,1,5.8,2.88,1.15,3.14.82,16.83-51.62,61.23a.5.5,0,1,0,.64.76c42.23-35.74,59.71-41.08,66.37-41.08,4,0,6.08,1.8,6.32,5.33.57,8.45-9.68,24.33-24.36,37.77-10.72,9.8-33.09,26.84-62.54,30.84a.5.5,0,0,0-.43.56.5.5,0,0,0,.49.44h.07a93.28,93.28,0,0,1,12.44-.83c45,0,85.41,32.49,85.41,47.84,0,5.59-5.75,6.76-10.58,6.76-9.24,0-28.39-4.2-67.15-24.19a.46.46,0,0,0-.23-.06.5.5,0,0,0-.23,1c60.12,31,62.48,43,61.77,45.88-.56,2.3-3.72,3.58-8.91,3.58-19.47,0-67-18.17-88.56-52.9a.51.51,0,0,0-.43-.23.48.48,0,0,0-.26.07.49.49,0,0,0-.16.69c17.05,27.51,11.93,63.19,0,84.7C127,245.84,121.28,251.17,116.62,251.17Z"/><path d="M94.46,1c5.06,0,12,5.42,18.46,14.5,14.26,19.9,24,53.63,13.64,84.14a1,1,0,0,0,.62,1.26,1,1,0,0,0,.32.06,1,1,0,0,0,.95-.68c8.78-25.83,28.2-44.48,39-53.3C182.29,34.87,199,26.42,208.19,26.42c2.91,0,4.71.85,5.33,2.55,1.12,3.06.72,16.49-51.48,60.68l.65.76.65.76c42.1-35.63,59.45-41,66-41,3.69,0,5.6,1.59,5.82,4.86.48,7.13-7.68,22.25-24.2,37.37-10.67,9.76-32.95,26.73-62.27,30.72l.14,1,.13,1a92.16,92.16,0,0,1,12.38-.83c27.31,0,49.11,11.5,59.68,18.36,14.85,9.64,25.22,21.56,25.22,29,0,5.17-5.48,6.26-10.08,6.26-9.19,0-28.25-4.19-66.92-24.14l-.46.89-.46.89c47.52,24.52,62.93,39.48,61.52,45.32-.5,2.06-3.5,3.2-8.43,3.2-10.86,0-28-5.37-43.73-13.67-19.42-10.27-35.19-24.11-44.41-39a1,1,0,0,0-.85-.47,1,1,0,0,0-.53.15,1,1,0,0,0-.32,1.37c7.89,12.74,11.58,28.39,10.65,45.28-.76,13.89-4.66,28.08-10.7,38.93-4.88,8.76-10.47,14-14.94,14a5.88,5.88,0,0,1-4.53-2.32c-3.86-4.52-9.19-19.35-1.5-67.85l-1-.16-1-.15c-7.48,47.15-16.09,63.94-21.65,63.94-1.82,0-3.65-2-5.15-5.67-3.84-9.4-4.72-27-2.19-43.74,3.15-20.8,11-38.24,22-49.08a1,1,0,0,0,0-1.42,1,1,0,0,0-.71-.3,1,1,0,0,0-.7.29c-12.3,12.06-32.6,19-55.69,19S4,156.29,3.78,150.11,20.05,136.28,67,133l-.07-1-.07-1c-8.94.63-17.17.95-24.47.95-14.28,0-25.16-1.19-32.35-3.54-4.1-1.34-9-3.74-9-7.58C1,111.72,26.36,100,53.3,100c12.12,0,29.59,2.36,44,13.59a1,1,0,0,0,.62.21,1,1,0,0,0,.78-.39,1,1,0,0,0-.17-1.4C80,97.6,70.41,74.05,66.31,61.3c-5.67-17.66-7.63-35.8-4.77-44.12.85-2.48,2-3.73,3.49-3.73,2.72,0,13.21,4.56,33.72,63.26l.94-.33.94-.33C82.05,22.87,86.76,7.66,89.65,3.59A5.67,5.67,0,0,1,94.46,1m0-1c-10.4,0-14.2,20.77,5.23,76.38C83.26,29.37,71.5,12.45,65,12.45c-13.28,0-4.2,71.44,32.87,100.35C85,102.76,68.82,99,53.3,99c-46.58,0-86.84,33.92-11,33.92,7.12,0,15.28-.3,24.54-.95C-30.3,138.84.7,164.19,44.57,164.19c19.68,0,41.95-5.1,56.39-19.27C69.79,175.49,74,245.13,87,245.13c6.46,0,15.08-17.16,22.64-64.79-8.29,52.25-2.18,71.33,7,71.33,16.06,0,41.51-58.32,15.84-99.73,21.12,34.08,68.66,53.13,89,53.13,18.51,0,14.46-15.8-52.63-50.41,34.26,17.68,55.73,24.25,67.38,24.25,33.88,0-15.3-55.61-74.83-55.6a92.86,92.86,0,0,0-12.5.84c60.95-8.29,104.86-74.94,80.51-74.94-9.87,0-31,11-66.69,41.2,54.48-46.12,59.38-65,45.5-65-17.67,0-65.76,30.6-80.69,74.54,16.33-48.07-16.6-100-33-100Z"/></g></g></svg>